<svg preserveAspectRatio="none" overflow="visible" style="display: block;" width="16.5002" height="17.111" viewBox="0 0 16.5002 17.111" fill="none" xmlns="http://www.w3.org/2000/svg">
<path id="Icon" d="M0.750093 7.66517C0.750093 7.18654 0.750093 6.94723 0.811783 6.72684C0.866428 6.53161 0.956231 6.348 1.07678 6.18501C1.21287 6.00101 1.40178 5.85408 1.77958 5.56023L7.43151 1.16429C7.72428 0.936583 7.87066 0.822728 8.0323 0.778963C8.17493 0.740346 8.32526 0.740346 8.46788 0.778963C8.62952 0.822728 8.77591 0.936584 9.06868 1.16429L14.7206 5.56023C15.0984 5.85408 15.2873 6.00101 15.4234 6.18501C15.544 6.348 15.6338 6.53161 15.6884 6.72684C15.7501 6.94723 15.7501 7.18654 15.7501 7.66517V13.6943C15.7501 14.6277 15.7501 15.0944 15.5684 15.4509C15.4086 15.7645 15.1537 16.0195 14.8401 16.1793C14.4836 16.3609 14.0168 16.3609 13.0834 16.3609H3.41676C2.48334 16.3609 2.01663 16.3609 1.66011 16.1793C1.34651 16.0195 1.09154 15.7645 0.931749 15.4509C0.750093 15.0944 0.750093 14.6277 0.750093 13.6943V7.66517Z" stroke="#111111" stroke-width="1.5" stroke-linecap="round" stroke-linejoin="round"/>
</svg>
